<svg width="390" height="230" viewBox="0 0 390 230" fill="none" xmlns="http://www.w3.org/2000/svg">
<path opacity="0.59" d="M390 20C390 8.9543 381.046 0 370 0L20 0C8.9543 0 0 8.95431 0 20V230L390 230V20Z" fill="url(#paint0_linear)"/>
<path opacity="0.59" d="M390 20C390 8.9543 381.046 0 370 0L20 0C8.9543 0 0 8.95431 0 20V230L390 230V20Z" fill="url(#paint1_linear)"/>
<mask id="mask0" mask-type="alpha" maskUnits="userSpaceOnUse" x="0" y="0" width="390" height="180">
<path d="M0 20C0 8.9543 8.95431 0 20 0H370C381.046 0 390 8.95431 390 20V180H0V20Z" fill="#C4C4C4"/>
</mask>
<g mask="url(#mask0)">
<path d="M395.959 43.2013C389.761 43.2013 383.564 44.295 378.095 46.4823C371.534 51.2215 361.691 59.9707 358.045 71.6364C359.868 65.439 363.878 53.4088 370.804 45.7532C362.42 33.3585 348.931 24.6092 333.256 22.7865C328.516 25.3383 311.747 33.3585 305.185 47.9405C308.102 40.6495 315.393 26.0674 325.965 20.5992C321.59 -11.8459 293.884 -37 259.981 -37C224.619 -37 195.82 -9.65863 193.268 24.6092C207.85 29.7129 216.964 49.0342 220.609 58.148C220.974 58.8771 221.338 59.6062 221.338 59.9707C222.067 61.7935 222.432 62.8871 222.432 62.8871C222.432 62.158 221.703 61.0644 221.338 59.9707C221.338 59.6062 220.974 58.8771 220.974 58.5125C214.047 42.8368 197.642 33.3585 189.987 29.3484C171.759 37.7331 159 55.5961 159 76.7401C159 93.1449 166.656 107.727 178.321 117.205H441.527C444.808 110.279 446.996 102.623 446.996 94.2386C447.36 66.1681 424.394 43.2013 395.959 43.2013ZM303.727 51.9506C303.727 51.9506 304.092 50.8569 304.821 49.3987C304.456 50.4924 304.092 51.2215 303.727 51.9506ZM357.316 75.6464C357.316 75.6464 357.681 74.5528 358.045 73.0946C357.681 73.8237 357.316 74.9173 357.316 75.6464Z" fill="#CCD6E4"/>
<path d="M375.467 121.835C373.703 121.835 371.938 122.146 370.381 122.769C368.513 124.119 365.711 126.61 364.673 129.931C365.192 128.167 366.333 124.741 368.305 122.562C365.918 119.033 362.078 116.542 357.614 116.023C356.265 116.749 351.49 119.033 349.622 123.184C350.453 121.109 352.528 116.957 355.539 115.4C354.293 106.162 346.404 99 336.751 99C326.683 99 318.483 106.785 317.757 116.542C321.909 117.995 324.504 123.496 325.542 126.091C325.645 126.298 325.749 126.506 325.749 126.61C325.957 127.129 326.06 127.44 326.06 127.44C326.06 127.232 325.853 126.921 325.749 126.61C325.749 126.506 325.645 126.298 325.645 126.195C323.673 121.731 319.002 119.033 316.823 117.891C311.633 120.278 308 125.364 308 131.384C308 136.055 310.18 140.207 313.501 142.906H388.442C389.376 140.934 389.999 138.754 389.999 136.367C390.103 128.374 383.563 121.835 375.467 121.835ZM349.207 124.326C349.207 124.326 349.311 124.015 349.518 123.6C349.415 123.911 349.311 124.119 349.207 124.326ZM364.465 131.073C364.465 131.073 364.569 130.762 364.673 130.346C364.569 130.554 364.465 130.865 364.465 131.073Z" fill="#AEBDD2"/>
<path d="M299.467 60.8351C297.703 60.8351 295.938 61.1465 294.381 61.7693C292.513 63.1186 289.711 65.6097 288.673 68.9312C289.192 67.1667 290.333 63.7414 292.305 61.5617C289.918 58.0326 286.078 55.5415 281.614 55.0225C280.265 55.7491 275.49 58.0326 273.622 62.1845C274.453 60.1085 276.528 55.9567 279.539 54.3998C278.293 45.1619 270.404 38 260.751 38C250.683 38 242.483 45.7847 241.757 55.5415C245.909 56.9947 248.504 62.4958 249.542 65.0907C249.645 65.2983 249.749 65.5059 249.749 65.6097C249.957 66.1287 250.06 66.4401 250.06 66.4401C250.06 66.2325 249.853 65.9211 249.749 65.6097C249.749 65.5059 249.645 65.2983 249.645 65.1945C247.673 60.7313 243.002 58.0326 240.823 56.8909C235.633 59.2782 232 64.3642 232 70.3843C232 75.0551 234.18 79.207 237.501 81.9057H312.442C313.376 79.9336 313.999 77.7538 313.999 75.3665C314.103 67.3742 307.563 60.8351 299.467 60.8351ZM273.207 63.3262C273.207 63.3262 273.311 63.0148 273.518 62.5996C273.415 62.911 273.311 63.1186 273.207 63.3262ZM288.465 70.0729C288.465 70.0729 288.569 69.7616 288.673 69.3464C288.569 69.554 288.465 69.8653 288.465 70.0729Z" fill="#AEBDD2"/>
<path d="M401.862 35.8916C398.779 35.8916 395.697 36.4356 392.977 37.5236C389.713 39.8808 384.817 44.2326 383.004 50.035C383.91 46.9525 385.905 40.9688 389.35 37.1609C385.18 30.9958 378.471 26.644 370.674 25.7374C368.316 27.0067 359.975 30.9958 356.712 38.2489C358.162 34.6224 361.789 27.3693 367.047 24.6494C364.871 8.51147 351.09 -4 334.227 -4C316.639 -4 302.314 9.59942 301.045 26.644C308.298 29.1826 312.831 38.7928 314.644 43.326C314.825 43.6886 315.007 44.0513 315.007 44.2326C315.369 45.1392 315.551 45.6832 315.551 45.6832C315.551 45.3206 315.188 44.7766 315.007 44.2326C315.007 44.0513 314.825 43.6886 314.825 43.5073C311.38 35.7103 303.221 30.9958 299.413 29.0013C290.346 33.1718 284 42.0567 284 52.5736C284 60.7332 287.808 67.9863 293.61 72.7007H424.527C426.159 69.2556 427.247 65.4477 427.247 61.2772C427.429 47.3152 416.005 35.8916 401.862 35.8916ZM355.986 40.2435C355.986 40.2435 356.168 39.6995 356.53 38.9742C356.349 39.5181 356.168 39.8808 355.986 40.2435ZM382.641 52.0296C382.641 52.0296 382.822 51.4856 383.004 50.7603C382.822 51.123 382.641 51.667 382.641 52.0296Z" fill="#E1E8F2"/>
<path d="M398.149 56.4043C396.34 56.4043 394.532 56.7234 392.936 57.3617C391.021 58.7447 388.149 61.2979 387.085 64.7021C387.617 62.8936 388.787 59.383 390.809 57.1489C388.362 53.5319 384.426 50.9787 379.851 50.4468C378.468 51.1915 373.574 53.5319 371.66 57.7872C372.511 55.6596 374.638 51.4043 377.723 49.8085C376.447 40.3404 368.362 33 358.468 33C348.149 33 339.745 40.9787 339 50.9787C343.255 52.4681 345.915 58.1064 346.979 60.766C347.085 60.9787 347.191 61.1915 347.191 61.2979C347.404 61.8298 347.511 62.1489 347.511 62.1489C347.511 61.9362 347.298 61.617 347.191 61.2979C347.191 61.1915 347.085 60.9787 347.085 60.8723C345.064 56.2979 340.277 53.5319 338.043 52.3617C332.723 54.8085 329 60.0213 329 66.1915C329 70.9787 331.234 75.234 334.638 78H411.447C412.404 75.9787 413.043 73.7447 413.043 71.2979C413.149 63.1064 406.447 56.4043 398.149 56.4043ZM371.234 58.9574C371.234 58.9574 371.34 58.6383 371.553 58.2128C371.447 58.5319 371.34 58.7447 371.234 58.9574ZM386.872 65.8723C386.872 65.8723 386.979 65.5532 387.085 65.1277C386.979 65.3404 386.872 65.6596 386.872 65.8723Z" fill="#CCD6E4"/>
<path d="M323.149 107.404C321.34 107.404 319.532 107.723 317.936 108.362C316.021 109.745 313.149 112.298 312.085 115.702C312.617 113.894 313.787 110.383 315.809 108.149C313.362 104.532 309.426 101.979 304.851 101.447C303.468 102.191 298.574 104.532 296.66 108.787C297.511 106.66 299.638 102.404 302.723 100.809C301.447 91.3404 293.362 84 283.468 84C273.149 84 264.745 91.9787 264 101.979C268.255 103.468 270.915 109.106 271.979 111.766C272.085 111.979 272.191 112.191 272.191 112.298C272.404 112.83 272.511 113.149 272.511 113.149C272.511 112.936 272.298 112.617 272.191 112.298C272.191 112.191 272.085 111.979 272.085 111.872C270.064 107.298 265.277 104.532 263.043 103.362C257.723 105.809 254 111.021 254 117.191C254 121.979 256.234 126.234 259.638 129H336.447C337.404 126.979 338.043 124.745 338.043 122.298C338.149 114.106 331.447 107.404 323.149 107.404ZM296.234 109.957C296.234 109.957 296.34 109.638 296.553 109.213C296.447 109.532 296.34 109.745 296.234 109.957ZM311.872 116.872C311.872 116.872 311.979 116.553 312.085 116.128C311.979 116.34 311.872 116.66 311.872 116.872Z" fill="#E1E8F2"/>
<path d="M230.898 90.8732C229.671 90.8732 228.445 91.0896 227.363 91.5225C226.064 92.4605 224.116 94.1921 223.394 96.5009C223.755 95.2744 224.549 92.8934 225.92 91.3782C224.26 88.9251 221.591 87.1935 218.488 86.8327C217.55 87.3378 214.231 88.9251 212.932 91.8111C213.51 90.3681 214.953 87.4821 217.045 86.3998C216.179 79.9784 210.696 75 203.986 75C196.987 75 191.287 80.4113 190.782 87.1935C193.668 88.2036 195.472 92.0276 196.193 93.8314C196.266 93.9757 196.338 94.12 196.338 94.1921C196.482 94.5529 196.554 94.7693 196.554 94.7693C196.554 94.625 196.41 94.4086 196.338 94.1921C196.338 94.12 196.266 93.9757 196.266 93.9035C194.895 90.801 191.648 88.9251 190.133 88.1315C186.525 89.7909 184 93.3263 184 97.5111C184 100.758 185.515 103.644 187.824 105.52H239.917C240.566 104.149 240.999 102.634 240.999 100.974C241.071 95.4187 236.526 90.8732 230.898 90.8732ZM212.644 92.6048C212.644 92.6048 212.716 92.3883 212.86 92.0997C212.788 92.3162 212.716 92.4605 212.644 92.6048ZM223.25 97.2946C223.25 97.2946 223.322 97.0782 223.394 96.7895C223.322 96.9339 223.25 97.1503 223.25 97.2946Z" fill="#E1E8F2"/>
</g>
<defs>
<linearGradient id="paint0_linear" x1="390" y1="0" x2="-30.5178" y2="134.792" gradientUnits="userSpaceOnUse">
<stop stop-color="#B8CBE8"/>
<stop offset="1" stop-color="#707070"/>
</linearGradient>
<linearGradient id="paint1_linear" x1="390" y1="0" x2="-30.5178" y2="134.792" gradientUnits="userSpaceOnUse">
<stop stop-color="#DDDEDF"/>
<stop offset="1" stop-color="#718EB9"/>
</linearGradient>
</defs>
</svg>
